<svg width="3846" height="1099" viewBox="0 0 3846 1099" fill="none" xmlns="http://www.w3.org/2000/svg">
<path d="M1055.7 954.851C1036.3 954.851 1025.91 943.763 1025.91 923.666V489.155C1025.91 468.365 1036.99 456.584 1053.62 456.584C1069.56 456.584 1075.11 461.435 1085.5 475.295L1362.01 841.892V487.769C1362.01 467.672 1373.1 456.584 1392.5 456.584C1411.21 456.584 1422.3 467.672 1422.3 487.769V923.666C1422.3 943.07 1411.91 954.851 1395.97 954.851C1380.72 954.851 1373.1 949.307 1362.7 935.447L1085.5 567.464V923.666C1085.5 943.763 1075.11 954.851 1055.7 954.851ZM1651.83 956.237C1569.36 956.237 1529.86 910.499 1529.86 821.102V639.536C1529.86 618.746 1540.95 607.658 1561.05 607.658C1581.14 607.658 1592.93 618.746 1592.93 639.536V821.102C1592.93 877.928 1615.1 904.955 1665 904.955C1720.44 904.955 1758.55 864.761 1758.55 803.777V639.536C1758.55 618.746 1769.64 607.658 1789.74 607.658C1809.83 607.658 1821.62 618.746 1821.62 639.536V922.28C1821.62 943.07 1811.22 954.851 1791.12 954.851C1771.03 954.851 1759.94 943.07 1759.94 922.28V894.56C1738.46 934.754 1698.95 956.237 1651.83 956.237ZM1955.66 954.851C1934.18 954.851 1923.09 943.07 1923.09 922.28V639.536C1923.09 618.746 1934.18 607.658 1954.28 607.658C1973.68 607.658 1984.77 618.746 1984.77 639.536V672.8C2003.48 630.527 2042.29 608.351 2096.34 605.579C2110.89 604.193 2120.6 612.509 2121.98 630.527C2123.37 647.852 2113.67 658.94 2094.26 661.019L2081.79 661.712C2020.11 667.949 1986.85 701.906 1986.85 760.118V922.28C1986.85 943.07 1976.45 954.851 1955.66 954.851ZM2177.58 954.851C2152.64 954.851 2142.24 936.14 2153.33 912.578L2342.52 484.304C2350.83 464.9 2364 456.584 2379.94 456.584C2395.19 456.584 2408.35 464.9 2417.36 484.304L2606.55 912.578C2617.64 936.833 2607.94 954.851 2583.68 954.851C2564.97 954.851 2555.27 945.149 2546.95 926.438L2504.68 828.032H2253.81L2211.54 926.438C2203.23 946.535 2193.52 954.851 2177.58 954.851ZM2379.94 534.2H2378.55L2276.68 775.364H2482.5L2379.94 534.2ZM2790.47 956.237C2721.17 956.237 2684.44 913.964 2684.44 836.348V488.462C2684.44 467.672 2695.53 456.584 2715.63 456.584C2735.73 456.584 2747.51 467.672 2747.51 488.462V831.497C2747.51 879.314 2767.6 902.876 2805.03 902.876C2813.34 902.876 2819.58 902.183 2825.82 901.49C2836.9 900.797 2840.37 905.648 2840.37 925.052C2840.37 943.07 2833.44 952.079 2815.42 954.851C2807.1 956.237 2798.1 956.237 2790.47 956.237ZM2924.07 534.2C2899.12 534.2 2883.88 520.34 2883.88 497.471C2883.88 473.216 2899.12 460.742 2924.07 460.742C2950.4 460.742 2964.26 473.216 2964.26 497.471C2964.26 520.34 2950.4 534.2 2924.07 534.2ZM2924.07 953.465C2903.97 953.465 2892.88 940.991 2892.88 919.508V643.001C2892.88 620.825 2903.97 609.044 2924.07 609.044C2944.17 609.044 2955.95 620.825 2955.95 643.001V919.508C2955.95 940.991 2944.86 953.465 2924.07 953.465ZM3209.1 1080.98C3159.21 1080.98 3111.39 1070.58 3073.28 1047.02C3042.78 1029.7 3067.73 986.729 3094.07 1001.28C3134.95 1024.84 3170.99 1031.08 3204.95 1031.08C3270.09 1031.08 3303.35 997.124 3303.35 931.982V875.156C3284.64 916.736 3240.29 941.684 3188.31 941.684C3096.15 941.684 3037.24 873.77 3037.24 773.978C3037.24 673.493 3096.15 606.272 3188.31 606.272C3239.6 606.272 3282.56 630.527 3301.97 670.028V639.536C3301.97 618.746 3313.75 607.658 3333.84 607.658C3353.94 607.658 3365.03 618.746 3365.03 639.536V923.666C3365.03 1028.31 3310.98 1080.98 3209.1 1080.98ZM3202.17 891.788C3263.85 891.788 3302.66 846.05 3302.66 773.978C3302.66 701.213 3263.85 656.168 3202.17 656.168C3140.5 656.168 3101 701.213 3101 773.978C3101 846.05 3140.5 891.788 3202.17 891.788ZM3497.28 954.851C3477.19 954.851 3466.1 943.07 3466.1 922.28V639.536C3466.1 618.746 3477.19 607.658 3497.28 607.658C3516.69 607.658 3527.78 618.746 3527.78 639.536V669.335C3550.64 627.755 3592.92 606.272 3642.81 606.272C3723.89 606.272 3762.7 649.931 3762.7 740.714V922.28C3762.7 943.07 3751.61 954.851 3731.52 954.851C3711.42 954.851 3699.64 943.07 3699.64 922.28V744.179C3699.64 683.888 3677.46 657.554 3626.87 657.554C3567.28 657.554 3529.16 697.055 3529.16 758.732V922.28C3529.16 943.07 3518.07 954.851 3497.28 954.851Z" fill="#888FC7"/>
<g clip-path="url(#clip0_935_205)" filter="url(#filter0_d_935_205)">
<rect x="4" width="962.569" height="950" fill="#888FC7"/>
<rect x="516" y="386" width="478" height="478" rx="30" transform="rotate(30 516 386)" fill="white"/>
</g>
<defs>
<filter id="filter0_d_935_205" x="0" y="0" width="971" height="958" filterUnits="userSpaceOnUse" color-interpolation-filters="sRGB">
<feFlood flood-opacity="0" result="BackgroundImageFix"/>
<feColorMatrix in="SourceAlpha" type="matrix" values="0 0 0 0 0 0 0 0 0 0 0 0 0 0 0 0 0 0 127 0" result="hardAlpha"/>
<feOffset dy="4"/>
<feGaussianBlur stdDeviation="2"/>
<feComposite in2="hardAlpha" operator="out"/>
<feColorMatrix type="matrix" values="0 0 0 0 0 0 0 0 0 0 0 0 0 0 0 0 0 0 0.25 0"/>
<feBlend mode="normal" in2="BackgroundImageFix" result="effect1_dropShadow_935_205"/>
<feBlend mode="normal" in="SourceGraphic" in2="effect1_dropShadow_935_205" result="shape"/>
</filter>
<clipPath id="clip0_935_205">
<rect width="963" height="950" fill="white" transform="translate(4)"/>
</clipPath>
</defs>
</svg>
